<?xml version="1.0" encoding="UTF-8" standalone="no"?>
<!-- Created with Inkscape (http://www.inkscape.org/) -->

<svg
   xmlns:dc="http://purl.org/dc/elements/1.1/"
   xmlns:cc="http://creativecommons.org/ns#"
   xmlns:rdf="http://www.w3.org/1999/02/22-rdf-syntax-ns#"
   xmlns:svg="http://www.w3.org/2000/svg"
   xmlns="http://www.w3.org/2000/svg"
   xmlns:sodipodi="http://sodipodi.sourceforge.net/DTD/sodipodi-0.dtd"
   xmlns:inkscape="http://www.inkscape.org/namespaces/inkscape"
   id="svg3912"
   version="1.1"
   inkscape:version="0.91 r13725"
   xml:space="preserve"
   width="663.98132"
   height="608.72253"
   viewBox="0 0 663.98132 608.72253"
   sodipodi:docname="Cactus.svg"><metadata
     id="metadata3918"><rdf:RDF><cc:Work
         rdf:about=""><dc:format>image/svg+xml</dc:format><dc:type
           rdf:resource="http://purl.org/dc/dcmitype/StillImage" /><dc:title></dc:title></cc:Work></rdf:RDF></metadata><defs
     id="defs3916"><clipPath
       clipPathUnits="userSpaceOnUse"
       id="clipPath3936"><path
         d="m 155.6,54.8 529.6,0 0,485.4 -529.6,0 0,-485.4 z"
         id="path3938"
         inkscape:connector-curvature="0"
         style="clip-rule:evenodd" /></clipPath><clipPath
       clipPathUnits="userSpaceOnUse"
       id="clipPath3948"><path
         d="m 155.6,54.8 529.6,0 0,485.4 -529.6,0 0,-485.4 z"
         id="path3950"
         inkscape:connector-curvature="0"
         style="clip-rule:evenodd" /></clipPath><clipPath
       clipPathUnits="userSpaceOnUse"
       id="clipPath3960"><path
         d="m 155.6,54.8 529.6,0 0,485.4 -529.6,0 0,-485.4 z"
         id="path3962"
         inkscape:connector-curvature="0"
         style="clip-rule:evenodd" /></clipPath><clipPath
       clipPathUnits="userSpaceOnUse"
       id="clipPath3972"><path
         d="m 155.6,54.8 529.6,0 0,485.4 -529.6,0 0,-485.4 z"
         id="path3974"
         inkscape:connector-curvature="0"
         style="clip-rule:evenodd" /></clipPath><clipPath
       clipPathUnits="userSpaceOnUse"
       id="clipPath3984"><path
         d="m 155.6,54.8 529.6,0 0,485.4 -529.6,0 0,-485.4 z"
         id="path3986"
         inkscape:connector-curvature="0"
         style="clip-rule:evenodd" /></clipPath><clipPath
       clipPathUnits="userSpaceOnUse"
       id="clipPath3996"><path
         d="m 155.6,54.8 529.6,0 0,485.4 -529.6,0 0,-485.4 z"
         id="path3998"
         inkscape:connector-curvature="0"
         style="clip-rule:evenodd" /></clipPath><clipPath
       clipPathUnits="userSpaceOnUse"
       id="clipPath4008"><path
         d="m 155.6,54.8 529.6,0 0,485.4 -529.6,0 0,-485.4 z"
         id="path4010"
         inkscape:connector-curvature="0"
         style="clip-rule:evenodd" /></clipPath><clipPath
       clipPathUnits="userSpaceOnUse"
       id="clipPath4020"><path
         d="m 155.6,54.8 529.6,0 0,485.4 -529.6,0 0,-485.4 z"
         id="path4022"
         inkscape:connector-curvature="0"
         style="clip-rule:evenodd" /></clipPath><clipPath
       clipPathUnits="userSpaceOnUse"
       id="clipPath4032"><path
         d="m 155.6,54.8 529.6,0 0,485.4 -529.6,0 0,-485.4 z"
         id="path4034"
         inkscape:connector-curvature="0"
         style="clip-rule:evenodd" /></clipPath><clipPath
       clipPathUnits="userSpaceOnUse"
       id="clipPath4044"><path
         d="m 155.6,54.8 529.6,0 0,485.4 -529.6,0 0,-485.4 z"
         id="path4046"
         inkscape:connector-curvature="0"
         style="clip-rule:evenodd" /></clipPath><clipPath
       clipPathUnits="userSpaceOnUse"
       id="clipPath4056"><path
         d="m 155.6,54.8 529.6,0 0,485.4 -529.6,0 0,-485.4 z"
         id="path4058"
         inkscape:connector-curvature="0"
         style="clip-rule:evenodd" /></clipPath><clipPath
       clipPathUnits="userSpaceOnUse"
       id="clipPath4068"><path
         d="m 155.6,54.8 529.6,0 0,485.4 -529.6,0 0,-485.4 z"
         id="path4070"
         inkscape:connector-curvature="0"
         style="clip-rule:evenodd" /></clipPath><clipPath
       clipPathUnits="userSpaceOnUse"
       id="clipPath4080"><path
         d="m 155.6,54.8 529.6,0 0,485.4 -529.6,0 0,-485.4 z"
         id="path4082"
         inkscape:connector-curvature="0"
         style="clip-rule:evenodd" /></clipPath><clipPath
       clipPathUnits="userSpaceOnUse"
       id="clipPath4092"><path
         d="m 155.6,54.8 529.6,0 0,485.4 -529.6,0 0,-485.4 z"
         id="path4094"
         inkscape:connector-curvature="0"
         style="clip-rule:evenodd" /></clipPath><clipPath
       clipPathUnits="userSpaceOnUse"
       id="clipPath4104"><path
         d="m 155.6,54.8 529.6,0 0,485.4 -529.6,0 0,-485.4 z"
         id="path4106"
         inkscape:connector-curvature="0"
         style="clip-rule:evenodd" /></clipPath><clipPath
       clipPathUnits="userSpaceOnUse"
       id="clipPath4116"><path
         d="m 155.6,54.8 529.6,0 0,485.4 -529.6,0 0,-485.4 z"
         id="path4118"
         inkscape:connector-curvature="0"
         style="clip-rule:evenodd" /></clipPath><clipPath
       clipPathUnits="userSpaceOnUse"
       id="clipPath4128"><path
         d="m 155.6,54.8 529.6,0 0,485.4 -529.6,0 0,-485.4 z"
         id="path4130"
         inkscape:connector-curvature="0"
         style="clip-rule:evenodd" /></clipPath><clipPath
       clipPathUnits="userSpaceOnUse"
       id="clipPath4140"><path
         d="m 155.6,54.8 529.6,0 0,485.4 -529.6,0 0,-485.4 z"
         id="path4142"
         inkscape:connector-curvature="0"
         style="clip-rule:evenodd" /></clipPath><clipPath
       clipPathUnits="userSpaceOnUse"
       id="clipPath4152"><path
         d="m 155.6,54.8 529.6,0 0,485.4 -529.6,0 0,-485.4 z"
         id="path4154"
         inkscape:connector-curvature="0"
         style="clip-rule:evenodd" /></clipPath><clipPath
       clipPathUnits="userSpaceOnUse"
       id="clipPath4164"><path
         d="m 155.6,54.8 529.6,0 0,485.4 -529.6,0 0,-485.4 z"
         id="path4166"
         inkscape:connector-curvature="0"
         style="clip-rule:evenodd" /></clipPath><clipPath
       clipPathUnits="userSpaceOnUse"
       id="clipPath4176"><path
         d="m 155.2,54 531.2,0 0,487.2 -531.2,0 0,-487.2 z"
         id="path4178"
         inkscape:connector-curvature="0"
         style="clip-rule:evenodd" /></clipPath></defs><sodipodi:namedview
     pagecolor="#ffffff"
     bordercolor="#666666"
     borderopacity="1"
     objecttolerance="10"
     gridtolerance="10"
     guidetolerance="10"
     inkscape:pageopacity="0"
     inkscape:pageshadow="2"
     inkscape:window-width="1920"
     inkscape:window-height="1017"
     id="namedview3914"
     showgrid="false"
     fit-margin-top="0"
     fit-margin-left="0"
     fit-margin-right="0"
     fit-margin-bottom="0"
     inkscape:zoom="0.80639405"
     inkscape:cx="480.13027"
     inkscape:cy="236.9161"
     inkscape:window-x="-8"
     inkscape:window-y="-8"
     inkscape:window-maximized="1"
     inkscape:current-layer="g3920" /><g
     id="g3920"
     inkscape:groupmode="layer"
     inkscape:label="Cactus"
     transform="matrix(1.25,0,0,-1.25,-194.01869,676.22256)"><path
       d="m 156.06,54.733 529.62,0 0,485.4 -529.62,0 0,-485.4 z"
       style="fill:#ffffff;fill-opacity:1;fill-rule:evenodd;stroke:none"
       id="path3922"
       inkscape:connector-curvature="0" /><path
       d="m 263.6,176.87 397.29,0 m -397.29,31.55 397.29,0 m -397.29,31.55 397.29,0 m -397.29,31.55 397.29,0 m -397.29,31.54 397.29,0 m -397.29,31.55 397.29,0 m -397.29,31.55 397.29,0 m -397.29,31.55 397.29,0 m -397.29,31.41 397.29,0"
       style="fill:none;stroke:#d9d9d9;stroke-width:1.69009995;stroke-linecap:butt;stroke-linejoin:round;stroke-miterlimit:10;stroke-dasharray:none;stroke-opacity:1"
       id="path3924"
       inkscape:connector-curvature="0" /><path
       d="m 331.78,145.53 62.272,0 0,248.77 -62.272,0 0,-248.77 z"
       style="fill:#99cc00;fill-opacity:1;fill-rule:evenodd;stroke:none"
       id="path3926"
       inkscape:connector-curvature="0" /><path
       d="m 530.43,145.53 62.272,0 0,71.843 -62.272,0 0,-71.843 z"
       style="fill:#00b050;fill-opacity:1;fill-rule:evenodd;stroke:none"
       id="path3928"
       inkscape:connector-curvature="0" /><path
       d="m 263.6,145.53 397.29,0"
       style="fill:none;stroke:#d9d9d9;stroke-width:1.69009995;stroke-linecap:butt;stroke-linejoin:round;stroke-miterlimit:10;stroke-dasharray:none;stroke-opacity:1"
       id="path3930"
       inkscape:connector-curvature="0" /><g
       id="g3932"><g
         id="g3934"
         clip-path="url(#clipPath3936)"><text
           transform="matrix(1,0,0,-1,324,410.03)"
           style="font-variant:normal;font-weight:normal;font-size:22.54999924px;font-family:'Segoe UI';-inkscape-font-specification:'Segoe UI';writing-mode:lr-tb;fill:#595959;fill-opacity:1;fill-rule:nonzero;stroke:none"
           id="text3940"><tspan
             x="0 12.15445 24.308901 29.29245 41.446899"
             y="0"
             sodipodi:role="line"
             id="tspan3942">15.79</tspan></text>
</g></g><g
       id="g3944"><g
         id="g3946"
         clip-path="url(#clipPath3948)"><text
           transform="matrix(1,0,0,-1,383.5,410.03)"
           style="font-variant:normal;font-weight:normal;font-size:22.54999924px;font-family:'Segoe UI';-inkscape-font-specification:'Segoe UI';writing-mode:lr-tb;fill:#595959;fill-opacity:1;fill-rule:nonzero;stroke:none"
           id="text3952"><tspan
             x="0"
             y="0"
             id="tspan3954">%</tspan></text>
</g></g><g
       id="g3956"><g
         id="g3958"
         clip-path="url(#clipPath3960)"><text
           transform="matrix(1,0,0,-1,528.55,233.03)"
           style="font-variant:normal;font-weight:normal;font-size:22.54999924px;font-family:'Segoe UI';-inkscape-font-specification:'Segoe UI';writing-mode:lr-tb;fill:#595959;fill-opacity:1;fill-rule:nonzero;stroke:none"
           id="text3964"><tspan
             x="0 12.15445 17.138 29.29245"
             y="0"
             sodipodi:role="line"
             id="tspan3966">4.56</tspan></text>
</g></g><g
       id="g3968"><g
         id="g3970"
         clip-path="url(#clipPath3972)"><text
           transform="matrix(1,0,0,-1,575.9,233.03)"
           style="font-variant:normal;font-weight:normal;font-size:22.54999924px;font-family:'Segoe UI';-inkscape-font-specification:'Segoe UI';writing-mode:lr-tb;fill:#595959;fill-opacity:1;fill-rule:nonzero;stroke:none"
           id="text3976"><tspan
             x="0"
             y="0"
             id="tspan3978">%</tspan></text>
</g></g><g
       id="g3980"><g
         id="g3982"
         clip-path="url(#clipPath3984)"><text
           transform="matrix(1,0,0,-1,231.95,138.45)"
           style="font-variant:normal;font-weight:normal;font-size:20.29999924px;font-family:'Segoe UI';-inkscape-font-specification:'Segoe UI';writing-mode:lr-tb;fill:#595959;fill-opacity:1;fill-rule:nonzero;stroke:none"
           id="text3988"><tspan
             x="0"
             y="0"
             id="tspan3990">0</tspan></text>
</g></g><g
       id="g3992"><g
         id="g3994"
         clip-path="url(#clipPath3996)"><text
           transform="matrix(1,0,0,-1,231.95,169.98)"
           style="font-variant:normal;font-weight:normal;font-size:20.29999924px;font-family:'Segoe UI';-inkscape-font-specification:'Segoe UI';writing-mode:lr-tb;fill:#595959;fill-opacity:1;fill-rule:nonzero;stroke:none"
           id="text4000"><tspan
             x="0"
             y="0"
             id="tspan4002">2</tspan></text>
</g></g><g
       id="g4004"><g
         id="g4006"
         clip-path="url(#clipPath4008)"><text
           transform="matrix(1,0,0,-1,231.95,201.5)"
           style="font-variant:normal;font-weight:normal;font-size:20.29999924px;font-family:'Segoe UI';-inkscape-font-specification:'Segoe UI';writing-mode:lr-tb;fill:#595959;fill-opacity:1;fill-rule:nonzero;stroke:none"
           id="text4012"><tspan
             x="0"
             y="0"
             id="tspan4014">4</tspan></text>
</g></g><g
       id="g4016"><g
         id="g4018"
         clip-path="url(#clipPath4020)"><text
           transform="matrix(1,0,0,-1,231.95,233.03)"
           style="font-variant:normal;font-weight:normal;font-size:20.29999924px;font-family:'Segoe UI';-inkscape-font-specification:'Segoe UI';writing-mode:lr-tb;fill:#595959;fill-opacity:1;fill-rule:nonzero;stroke:none"
           id="text4024"><tspan
             x="0"
             y="0"
             id="tspan4026">6</tspan></text>
</g></g><g
       id="g4028"><g
         id="g4030"
         clip-path="url(#clipPath4032)"><text
           transform="matrix(1,0,0,-1,231.95,264.53)"
           style="font-variant:normal;font-weight:normal;font-size:20.27499962px;font-family:'Segoe UI';-inkscape-font-specification:'Segoe UI';writing-mode:lr-tb;fill:#595959;fill-opacity:1;fill-rule:nonzero;stroke:none"
           id="text4036"><tspan
             x="0"
             y="0"
             id="tspan4038">8</tspan></text>
</g></g><g
       id="g4040"><g
         id="g4042"
         clip-path="url(#clipPath4044)"><text
           transform="matrix(1,0,0,-1,221,296.05)"
           style="font-variant:normal;font-weight:normal;font-size:20.27499962px;font-family:'Segoe UI';-inkscape-font-specification:'Segoe UI';writing-mode:lr-tb;fill:#595959;fill-opacity:1;fill-rule:nonzero;stroke:none"
           id="text4048"><tspan
             x="0 10.825225"
             y="0"
             sodipodi:role="line"
             id="tspan4050">10</tspan></text>
</g></g><g
       id="g4052"><g
         id="g4054"
         clip-path="url(#clipPath4056)"><text
           transform="matrix(1,0,0,-1,221,327.58)"
           style="font-variant:normal;font-weight:normal;font-size:20.27499962px;font-family:'Segoe UI';-inkscape-font-specification:'Segoe UI';writing-mode:lr-tb;fill:#595959;fill-opacity:1;fill-rule:nonzero;stroke:none"
           id="text4060"><tspan
             x="0 10.825225"
             y="0"
             sodipodi:role="line"
             id="tspan4062">12</tspan></text>
</g></g><g
       id="g4064"><g
         id="g4066"
         clip-path="url(#clipPath4068)"><text
           transform="matrix(1,0,0,-1,221,359.1)"
           style="font-variant:normal;font-weight:normal;font-size:20.29999924px;font-family:'Segoe UI';-inkscape-font-specification:'Segoe UI';writing-mode:lr-tb;fill:#595959;fill-opacity:1;fill-rule:nonzero;stroke:none"
           id="text4072"><tspan
             x="0 10.8247"
             y="0"
             sodipodi:role="line"
             id="tspan4074">14</tspan></text>
</g></g><g
       id="g4076"><g
         id="g4078"
         clip-path="url(#clipPath4080)"><text
           transform="matrix(1,0,0,-1,221,390.63)"
           style="font-variant:normal;font-weight:normal;font-size:20.29999924px;font-family:'Segoe UI';-inkscape-font-specification:'Segoe UI';writing-mode:lr-tb;fill:#595959;fill-opacity:1;fill-rule:nonzero;stroke:none"
           id="text4084"><tspan
             x="0 10.8247"
             y="0"
             sodipodi:role="line"
             id="tspan4086">16</tspan></text>
</g></g><g
       id="g4088"><g
         id="g4090"
         clip-path="url(#clipPath4092)"><text
           transform="matrix(1,0,0,-1,221,422.15)"
           style="font-variant:normal;font-weight:normal;font-size:20.29999924px;font-family:'Segoe UI';-inkscape-font-specification:'Segoe UI';writing-mode:lr-tb;fill:#595959;fill-opacity:1;fill-rule:nonzero;stroke:none"
           id="text4096"><tspan
             x="0 10.8247"
             y="0"
             sodipodi:role="line"
             id="tspan4098">18</tspan></text>
</g></g><g
       id="g4100"><g
         id="g4102"
         clip-path="url(#clipPath4104)"><text
           transform="matrix(1,0,0,-1,293.63,104.83)"
           style="font-variant:normal;font-weight:normal;font-size:22.54999924px;font-family:'Segoe UI';-inkscape-font-specification:'Segoe UI';writing-mode:lr-tb;fill:#595959;fill-opacity:1;fill-rule:nonzero;stroke:none"
           id="text4108"><tspan
             x="0 13.95845 25.256001 36.057449 43.273449 56.329899 65.800903 72.092346 83.367348 93.717796 101.36225 109.0969 120.80035 131.21844"
             y="0"
             sodipodi:role="line"
             id="tspan4110">Cactus Extract</tspan></text>
</g></g><g
       id="g4112"><g
         id="g4114"
         clip-path="url(#clipPath4116)"><text
           transform="matrix(1,0,0,-1,472.38,104.83)"
           style="font-variant:normal;font-weight:normal;font-size:22.54999924px;font-family:'Segoe UI';-inkscape-font-specification:'Segoe UI';writing-mode:lr-tb;fill:#595959;fill-opacity:1;fill-rule:nonzero;stroke:none"
           id="text4120"><tspan
             x="0 17.138 24.78245 37.432999 49.159 56.826 63.117451 73.9189 86.997902 103.30155 109.5479 123.50635 134.80389 140.261 153.72334 161.39035 166.84744"
             y="0"
             sodipodi:role="line"
             id="tspan4122">Other Low Calorie</tspan></text>
</g></g><g
       id="g4124"><g
         id="g4126"
         clip-path="url(#clipPath4128)"><text
           transform="matrix(1,0,0,-1,507.03,74.825)"
           style="font-variant:normal;font-weight:normal;font-size:22.52499962px;font-family:'Segoe UI';-inkscape-font-specification:'Segoe UI';writing-mode:lr-tb;fill:#595959;fill-opacity:1;fill-rule:nonzero;stroke:none"
           id="text4132"><tspan
             x="0 15.790025 21.241076 32.863976 40.49995 46.784424 62.101425 70.187897 83.229874 95.82135"
             y="0"
             sodipodi:role="line"
             id="tspan4134">Diet Group</tspan></text>
</g></g><g
       id="g4136"><g
         id="g4138"
         clip-path="url(#clipPath4140)"><text
           transform="matrix(-4.4e-8,1,1,4.4e-8,208.6,126.45)"
           style="font-variant:normal;font-weight:normal;font-size:22.54999924px;font-family:'Segoe UI';-inkscape-font-specification:'Segoe UI';writing-mode:lr-tb;fill:#595959;fill-opacity:1;fill-rule:nonzero;stroke:none"
           id="text4144"><tspan
             x="0 10.824 22.549999 32.968102 44.198002 49.655102 56.375 67.198997 78.473999 86.118446 92.455002 103.73 114.08045 124.49855 132.16554 143.89156 151.536 156.9931 170.0721 182.7001 189.89355 196.70364 209.33165 221.01254 228.67955 239.09766 250.77855 263.40656 271.05099 282.34854 295.42755 307.15356"
             y="0"
             sodipodi:role="line"
             id="tspan4146">Fecal Fat Excretion (Percentage)</tspan></text>
</g></g><g
       id="g4148"><g
         id="g4150"
         clip-path="url(#clipPath4152)"><text
           transform="matrix(1,0,0,-1,248.3,496.6)"
           style="font-variant:normal;font-weight:normal;font-size:24.79999924px;font-family:'Segoe UI';-inkscape-font-specification:'Segoe UI';writing-mode:lr-tb;fill:#595959;fill-opacity:1;fill-rule:nonzero;stroke:none"
           id="text4156"><tspan
             x="0 12.1024 25.1968 36.456001 49.079201 54.9072 61.7024 73.804802 86.428001 94.934402 101.7296 114.2784 125.5376 136.7968 145.3528 158.3976 166.9288 172.7816 187.21519 201.252 208.3696 222.80321 230.4416 237.2368 252.588 265.112 276.37119 284.9024 298.93921 309.2312 316.39841 331.72479 344.7944"
             y="0"
             sodipodi:role="line"
             id="tspan4158">Fecal Fat Excretion of Cactus VS </tspan></text>
</g></g><g
       id="g4160"><g
         id="g4162"
         clip-path="url(#clipPath4164)"><text
           transform="matrix(1,0,0,-1,259.1,463.25)"
           style="font-variant:normal;font-weight:normal;font-size:24.79999924px;font-family:'Segoe UI';-inkscape-font-specification:'Segoe UI';writing-mode:lr-tb;fill:#595959;fill-opacity:1;fill-rule:nonzero;stroke:none"
           id="text4168"><tspan
             x="0 18.500799 27.056801 41.093601 54.063999 62.694401 69.489601 81.170403 95.603996 113.6336 120.4288 135.78 148.4032 154.256 168.68961 177.32001 183.14799 196.19279 203.3848 220.968 226.8456 239.8904 248.4464 254.7704 271.9072 280.5376 294.89679 308.93359"
             y="0"
             sodipodi:role="line"
             id="tspan4170">Other Low Calorie Diet Group</tspan></text>
</g></g><g
       id="g4172"><g
         id="g4174"
         clip-path="url(#clipPath4176)"><path
           d="m 156.06,54.733 529.62,0 0,485.4 -529.62,0 0,-485.4 z"
           style="fill:none;stroke:#d9d9d9;stroke-width:1.69009995;stroke-linecap:butt;stroke-linejoin:round;stroke-miterlimit:10;stroke-dasharray:none;stroke-opacity:1"
           id="path4180"
           inkscape:connector-curvature="0" /></g></g></g></svg>