<?xml version="1.0" encoding="UTF-8" standalone="no"?>
<!-- Created with Inkscape (http://www.inkscape.org/) -->

<svg
   xmlns:dc="http://purl.org/dc/elements/1.1/"
   xmlns:cc="http://creativecommons.org/ns#"
   xmlns:rdf="http://www.w3.org/1999/02/22-rdf-syntax-ns#"
   xmlns:svg="http://www.w3.org/2000/svg"
   xmlns="http://www.w3.org/2000/svg"
   xmlns:sodipodi="http://sodipodi.sourceforge.net/DTD/sodipodi-0.dtd"
   xmlns:inkscape="http://www.inkscape.org/namespaces/inkscape"
   id="svg3590"
   version="1.1"
   inkscape:version="0.91 r13725"
   xml:space="preserve"
   width="916.789"
   height="608.87048"
   viewBox="0 0 916.789 608.87048"
   sodipodi:docname="GreenTea.svg"><metadata
     id="metadata3596"><rdf:RDF><cc:Work
         rdf:about=""><dc:format>image/svg+xml</dc:format><dc:type
           rdf:resource="http://purl.org/dc/dcmitype/StillImage" /><dc:title></dc:title></cc:Work></rdf:RDF></metadata><defs
     id="defs3594"><clipPath
       clipPathUnits="userSpaceOnUse"
       id="clipPath3614"><path
         d="m 54.6,55.2 732.2,0 0,485.6 -732.2,0 0,-485.6 z"
         id="path3616"
         inkscape:connector-curvature="0"
         style="clip-rule:evenodd" /></clipPath><clipPath
       clipPathUnits="userSpaceOnUse"
       id="clipPath3626"><path
         d="m 54.6,55.2 732.2,0 0,485.6 -732.2,0 0,-485.6 z"
         id="path3628"
         inkscape:connector-curvature="0"
         style="clip-rule:evenodd" /></clipPath><clipPath
       clipPathUnits="userSpaceOnUse"
       id="clipPath3638"><path
         d="m 54.6,55.2 732.2,0 0,485.6 -732.2,0 0,-485.6 z"
         id="path3640"
         inkscape:connector-curvature="0"
         style="clip-rule:evenodd" /></clipPath><clipPath
       clipPathUnits="userSpaceOnUse"
       id="clipPath3650"><path
         d="m 54.6,55.2 732.2,0 0,485.6 -732.2,0 0,-485.6 z"
         id="path3652"
         inkscape:connector-curvature="0"
         style="clip-rule:evenodd" /></clipPath><clipPath
       clipPathUnits="userSpaceOnUse"
       id="clipPath3662"><path
         d="m 54.6,55.2 732.2,0 0,485.6 -732.2,0 0,-485.6 z"
         id="path3664"
         inkscape:connector-curvature="0"
         style="clip-rule:evenodd" /></clipPath><clipPath
       clipPathUnits="userSpaceOnUse"
       id="clipPath3674"><path
         d="m 54.6,55.2 732.2,0 0,485.6 -732.2,0 0,-485.6 z"
         id="path3676"
         inkscape:connector-curvature="0"
         style="clip-rule:evenodd" /></clipPath><clipPath
       clipPathUnits="userSpaceOnUse"
       id="clipPath3686"><path
         d="m 54.6,55.2 732.2,0 0,485.6 -732.2,0 0,-485.6 z"
         id="path3688"
         inkscape:connector-curvature="0"
         style="clip-rule:evenodd" /></clipPath><clipPath
       clipPathUnits="userSpaceOnUse"
       id="clipPath3698"><path
         d="m 54.6,55.2 732.2,0 0,485.6 -732.2,0 0,-485.6 z"
         id="path3700"
         inkscape:connector-curvature="0"
         style="clip-rule:evenodd" /></clipPath><clipPath
       clipPathUnits="userSpaceOnUse"
       id="clipPath3710"><path
         d="m 54.6,55.2 732.2,0 0,485.6 -732.2,0 0,-485.6 z"
         id="path3712"
         inkscape:connector-curvature="0"
         style="clip-rule:evenodd" /></clipPath><clipPath
       clipPathUnits="userSpaceOnUse"
       id="clipPath3722"><path
         d="m 54.6,55.2 732.2,0 0,485.6 -732.2,0 0,-485.6 z"
         id="path3724"
         inkscape:connector-curvature="0"
         style="clip-rule:evenodd" /></clipPath><clipPath
       clipPathUnits="userSpaceOnUse"
       id="clipPath3734"><path
         d="m 54.6,55.2 732.2,0 0,485.6 -732.2,0 0,-485.6 z"
         id="path3736"
         inkscape:connector-curvature="0"
         style="clip-rule:evenodd" /></clipPath><clipPath
       clipPathUnits="userSpaceOnUse"
       id="clipPath3746"><path
         d="m 54.6,55.2 732.2,0 0,485.6 -732.2,0 0,-485.6 z"
         id="path3748"
         inkscape:connector-curvature="0"
         style="clip-rule:evenodd" /></clipPath><clipPath
       clipPathUnits="userSpaceOnUse"
       id="clipPath3758"><path
         d="m 54.6,55.2 732.2,0 0,485.6 -732.2,0 0,-485.6 z"
         id="path3760"
         inkscape:connector-curvature="0"
         style="clip-rule:evenodd" /></clipPath><clipPath
       clipPathUnits="userSpaceOnUse"
       id="clipPath3770"><path
         d="m 54.6,55.2 732.2,0 0,485.6 -732.2,0 0,-485.6 z"
         id="path3772"
         inkscape:connector-curvature="0"
         style="clip-rule:evenodd" /></clipPath><clipPath
       clipPathUnits="userSpaceOnUse"
       id="clipPath3782"><path
         d="m 54.6,55.2 732.2,0 0,485.6 -732.2,0 0,-485.6 z"
         id="path3784"
         inkscape:connector-curvature="0"
         style="clip-rule:evenodd" /></clipPath><clipPath
       clipPathUnits="userSpaceOnUse"
       id="clipPath3794"><path
         d="m 54.6,55.2 732.2,0 0,485.6 -732.2,0 0,-485.6 z"
         id="path3796"
         inkscape:connector-curvature="0"
         style="clip-rule:evenodd" /></clipPath><clipPath
       clipPathUnits="userSpaceOnUse"
       id="clipPath3806"><path
         d="m 54.6,55.2 732.2,0 0,485.6 -732.2,0 0,-485.6 z"
         id="path3808"
         inkscape:connector-curvature="0"
         style="clip-rule:evenodd" /></clipPath><clipPath
       clipPathUnits="userSpaceOnUse"
       id="clipPath3818"><path
         d="m 54.6,55.2 732.2,0 0,485.6 -732.2,0 0,-485.6 z"
         id="path3820"
         inkscape:connector-curvature="0"
         style="clip-rule:evenodd" /></clipPath><clipPath
       clipPathUnits="userSpaceOnUse"
       id="clipPath3830"><path
         d="m 54.6,55.2 732.2,0 0,485.6 -732.2,0 0,-485.6 z"
         id="path3832"
         inkscape:connector-curvature="0"
         style="clip-rule:evenodd" /></clipPath><clipPath
       clipPathUnits="userSpaceOnUse"
       id="clipPath3842"><path
         d="m 54.6,55.2 732.2,0 0,485.6 -732.2,0 0,-485.6 z"
         id="path3844"
         inkscape:connector-curvature="0"
         style="clip-rule:evenodd" /></clipPath><clipPath
       clipPathUnits="userSpaceOnUse"
       id="clipPath3854"><path
         d="m 54.6,55.2 732.2,0 0,485.6 -732.2,0 0,-485.6 z"
         id="path3856"
         inkscape:connector-curvature="0"
         style="clip-rule:evenodd" /></clipPath><clipPath
       clipPathUnits="userSpaceOnUse"
       id="clipPath3866"><path
         d="m 54.6,55.2 732.2,0 0,485.6 -732.2,0 0,-485.6 z"
         id="path3868"
         inkscape:connector-curvature="0"
         style="clip-rule:evenodd" /></clipPath><clipPath
       clipPathUnits="userSpaceOnUse"
       id="clipPath3880"><path
         d="m 54.6,55.2 732.2,0 0,485.6 -732.2,0 0,-485.6 z"
         id="path3882"
         inkscape:connector-curvature="0"
         style="clip-rule:evenodd" /></clipPath><clipPath
       clipPathUnits="userSpaceOnUse"
       id="clipPath3894"><path
         d="m 54.6,55.2 732.2,0 0,485.6 -732.2,0 0,-485.6 z"
         id="path3896"
         inkscape:connector-curvature="0"
         style="clip-rule:evenodd" /></clipPath><clipPath
       clipPathUnits="userSpaceOnUse"
       id="clipPath3906"><path
         d="m 54,54 733.6,0 0,487.2 L 54,541.2 54,54 Z"
         id="path3908"
         inkscape:connector-curvature="0"
         style="clip-rule:evenodd" /></clipPath></defs><sodipodi:namedview
     pagecolor="#ffffff"
     bordercolor="#666666"
     borderopacity="1"
     objecttolerance="10"
     gridtolerance="10"
     guidetolerance="10"
     inkscape:pageopacity="0"
     inkscape:pageshadow="2"
     inkscape:window-width="1920"
     inkscape:window-height="1017"
     id="namedview3592"
     showgrid="false"
     fit-margin-top="0"
     fit-margin-left="0"
     fit-margin-right="0"
     fit-margin-bottom="0"
     inkscape:zoom="0.84402577"
     inkscape:cx="666.97472"
     inkscape:cy="206.99929"
     inkscape:window-x="-8"
     inkscape:window-y="-8"
     inkscape:window-maximized="1"
     inkscape:current-layer="g3598" /><g
     id="g3598"
     inkscape:groupmode="layer"
     inkscape:label="GreenTea"
     transform="matrix(1.25,0,0,-1.25,-67.711,676.40775)"><path
       d="m 54.957,54.818 731.9,0 0,485.52 -731.9,0 0,-485.52 z"
       style="fill:#ffffff;fill-opacity:1;fill-rule:evenodd;stroke:none"
       id="path3600"
       inkscape:connector-curvature="0" /><path
       d="m 155.26,228.43 608.48,0 m -608.48,46.24 608.48,0 m -608.48,46.24 608.48,0 m -608.48,46.24 608.48,0 m -608.48,45.82 608.48,0 m -608.48,46.19 608.48,0"
       style="fill:none;stroke:#d9d9d9;stroke-width:1.57640004;stroke-linecap:butt;stroke-linejoin:round;stroke-miterlimit:10;stroke-dasharray:none;stroke-opacity:1"
       id="path3602"
       inkscape:connector-curvature="0" /><path
       d="m 192.47,310.82 34.05,0 0,-128.29 -34.05,0 0,128.29 z m 152.17,-15.98 34.05,0 0,-112.31 -34.05,0 0,112.31 z m 152.17,25.23 34.05,0 0,-137.54 -34.05,0 0,137.54 z m 152.17,99.62 34.05,0 0,-237.16 -34.05,0 0,237.16 z"
       style="fill:#99cc00;fill-opacity:1;fill-rule:nonzero;stroke:none"
       id="path3604"
       inkscape:connector-curvature="0" /><path
       d="m 235.76,238.94 34.47,0 0,-56.41 -34.47,0 0,56.41 z m 152.18,-10.51 34.05,0 0,-45.9 -34.05,0 0,45.9 z m 152.17,26.06 34.05,0 0,-71.96 -34.05,0 0,71.96 z m 152.17,19.34 34.05,0 0,-91.3 -34.05,0 0,91.3 z"
       style="fill:#00b050;fill-opacity:1;fill-rule:nonzero;stroke:none"
       id="path3606"
       inkscape:connector-curvature="0" /><path
       d="m 155.26,182.53 608.48,0"
       style="fill:none;stroke:#d9d9d9;stroke-width:1.57640004;stroke-linecap:butt;stroke-linejoin:round;stroke-miterlimit:10;stroke-dasharray:none;stroke-opacity:1"
       id="path3608"
       inkscape:connector-curvature="0" /><g
       id="g3610"><g
         id="g3612"
         clip-path="url(#clipPath3614)"><text
           transform="scale(1,-1)"
           style="font-variant:normal;font-weight:normal;font-size:18.92499924px;font-family:'Segoe UI';-inkscape-font-specification:'Segoe UI';writing-mode:lr-tb;fill:#404040;fill-opacity:1;fill-rule:nonzero;stroke:none"
           id="text3618"
           x="184.42998"
           y="-324.63"><tspan
             x="184.42998 194.53592 204.64188 208.8243"
             y="-324.63"
             sodipodi:role="line"
             id="tspan3620">13.9%</tspan></text>
</g></g><g
       id="g3622"><g
         id="g3624"
         clip-path="url(#clipPath3626)"><text
           transform="scale(1,-1)"
           style="font-variant:normal;font-weight:normal;font-size:18.92499924px;font-family:'Segoe UI';-inkscape-font-specification:'Segoe UI';writing-mode:lr-tb;fill:#404040;fill-opacity:1;fill-rule:nonzero;stroke:none"
           id="text3630"
           x="336.56998"
           y="-308.95001"><tspan
             x="336.56998 346.67593 356.78189 360.98322"
             y="-308.95001"
             sodipodi:role="line"
             id="tspan3632">12.2%</tspan></text>
</g></g><g
       id="g3634"><g
         id="g3636"
         clip-path="url(#clipPath3638)"><text
           transform="scale(1,-1)"
           style="font-variant:normal;font-weight:normal;font-size:18.92499924px;font-family:'Segoe UI';-inkscape-font-specification:'Segoe UI';writing-mode:lr-tb;fill:#404040;fill-opacity:1;fill-rule:nonzero;stroke:none"
           id="text3642"
           x="487.14996"
           y="-333.85001"><tspan
             x="487.14996 497.21808 507.28622 511.46872"
             y="-333.85001"
             sodipodi:role="line"
             id="tspan3644">14.9%</tspan></text>
</g></g><g
       id="g3646"><g
         id="g3648"
         clip-path="url(#clipPath3650)"><text
           transform="scale(1,-1)"
           style="font-variant:normal;font-weight:normal;font-size:18.92499924px;font-family:'Segoe UI';-inkscape-font-specification:'Segoe UI';writing-mode:lr-tb;fill:#404040;fill-opacity:1;fill-rule:nonzero;stroke:none"
           id="text3654"
           x="640.90009"
           y="-431.88"><tspan
             x="640.90009 651.00604 661.112 665.29443"
             y="-431.88"
             sodipodi:role="line"
             id="tspan3656">25.7%</tspan></text>
</g></g><g
       id="g3658"><g
         id="g3660"
         clip-path="url(#clipPath3662)"><text
           transform="scale(1,-1)"
           style="font-variant:normal;font-weight:normal;font-size:18.92499924px;font-family:'Segoe UI';-inkscape-font-specification:'Segoe UI';writing-mode:lr-tb;fill:#404040;fill-opacity:1;fill-rule:nonzero;stroke:none"
           id="text3666"
           x="232.79997"
           y="-252.67"><tspan
             x="232.79997 242.90593"
             y="-252.67"
             sodipodi:role="line"
             id="tspan3668">6.1%</tspan></text>
</g></g><g
       id="g3670"><g
         id="g3672"
         clip-path="url(#clipPath3674)"><text
           transform="scale(1,-1)"
           style="font-variant:normal;font-weight:normal;font-size:18.89999962px;font-family:'Segoe UI';-inkscape-font-specification:'Segoe UI';writing-mode:lr-tb;fill:#404040;fill-opacity:1;fill-rule:nonzero;stroke:none"
           id="text3678"
           x="393.69998"
           y="-242.53"><tspan
             x="393.69998"
             y="-242.53"
             id="tspan3680">5%</tspan></text>
</g></g><g
       id="g3682"><g
         id="g3684"
         clip-path="url(#clipPath3686)"><text
           transform="scale(1,-1)"
           style="font-variant:normal;font-weight:normal;font-size:18.92499924px;font-family:'Segoe UI';-inkscape-font-specification:'Segoe UI';writing-mode:lr-tb;fill:#404040;fill-opacity:1;fill-rule:nonzero;stroke:none"
           id="text3690"
           x="538.7301"
           y="-268.38"><tspan
             x="538.7301 548.79816 552.98059"
             y="-268.38"
             sodipodi:role="line"
             id="tspan3692">7.8%</tspan></text>
</g></g><g
       id="g3694"><g
         id="g3696"
         clip-path="url(#clipPath3698)"><text
           transform="scale(1,-1)"
           style="font-variant:normal;font-weight:normal;font-size:18.92499924px;font-family:'Segoe UI';-inkscape-font-specification:'Segoe UI';writing-mode:lr-tb;fill:#404040;fill-opacity:1;fill-rule:nonzero;stroke:none"
           id="text3702"
           x="689.27008"
           y="-287.73001"><tspan
             x="689.27008 699.37604 703.55847"
             y="-287.73001"
             sodipodi:role="line"
             id="tspan3704">9.9%</tspan></text>
</g></g><g
       id="g3706"><g
         id="g3708"
         clip-path="url(#clipPath3710)"><text
           transform="matrix(1,0,0,-1,125.7,175.92)"
           style="font-variant:normal;font-weight:normal;font-size:18.92499924px;font-family:'Segoe UI';-inkscape-font-specification:'Segoe UI';writing-mode:lr-tb;fill:#595959;fill-opacity:1;fill-rule:nonzero;stroke:none"
           id="text3714"><tspan
             x="0"
             y="0"
             id="tspan3716">0</tspan></text>
</g></g><g
       id="g3718"><g
         id="g3720"
         clip-path="url(#clipPath3722)"><text
           transform="matrix(1,0,0,-1,125.7,222.05)"
           style="font-variant:normal;font-weight:normal;font-size:18.92499924px;font-family:'Segoe UI';-inkscape-font-specification:'Segoe UI';writing-mode:lr-tb;fill:#595959;fill-opacity:1;fill-rule:nonzero;stroke:none"
           id="text3726"><tspan
             x="0"
             y="0"
             id="tspan3728">5</tspan></text>
</g></g><g
       id="g3730"><g
         id="g3732"
         clip-path="url(#clipPath3734)"><text
           transform="matrix(1,0,0,-1,115.5,268.17)"
           style="font-variant:normal;font-weight:normal;font-size:18.92499924px;font-family:'Segoe UI';-inkscape-font-specification:'Segoe UI';writing-mode:lr-tb;fill:#595959;fill-opacity:1;fill-rule:nonzero;stroke:none"
           id="text3738"><tspan
             x="0 10.099575"
             y="0"
             sodipodi:role="line"
             id="tspan3740">10</tspan></text>
</g></g><g
       id="g3742"><g
         id="g3744"
         clip-path="url(#clipPath3746)"><text
           transform="matrix(1,0,0,-1,115.5,314.3)"
           style="font-variant:normal;font-weight:normal;font-size:18.92499924px;font-family:'Segoe UI';-inkscape-font-specification:'Segoe UI';writing-mode:lr-tb;fill:#595959;fill-opacity:1;fill-rule:nonzero;stroke:none"
           id="text3750"><tspan
             x="0 10.099575"
             y="0"
             sodipodi:role="line"
             id="tspan3752">15</tspan></text>
</g></g><g
       id="g3754"><g
         id="g3756"
         clip-path="url(#clipPath3758)"><text
           transform="matrix(1,0,0,-1,115.5,360.43)"
           style="font-variant:normal;font-weight:normal;font-size:18.92499924px;font-family:'Segoe UI';-inkscape-font-specification:'Segoe UI';writing-mode:lr-tb;fill:#595959;fill-opacity:1;fill-rule:nonzero;stroke:none"
           id="text3762"><tspan
             x="0 10.099575"
             y="0"
             sodipodi:role="line"
             id="tspan3764">20</tspan></text>
</g></g><g
       id="g3766"><g
         id="g3768"
         clip-path="url(#clipPath3770)"><text
           transform="matrix(1,0,0,-1,115.5,406.55)"
           style="font-variant:normal;font-weight:normal;font-size:18.92499924px;font-family:'Segoe UI';-inkscape-font-specification:'Segoe UI';writing-mode:lr-tb;fill:#595959;fill-opacity:1;fill-rule:nonzero;stroke:none"
           id="text3774"><tspan
             x="0 10.099575"
             y="0"
             sodipodi:role="line"
             id="tspan3776">25</tspan></text>
</g></g><g
       id="g3778"><g
         id="g3780"
         clip-path="url(#clipPath3782)"><text
           transform="matrix(1,0,0,-1,115.5,452.65)"
           style="font-variant:normal;font-weight:normal;font-size:18.89999962px;font-family:'Segoe UI';-inkscape-font-specification:'Segoe UI';writing-mode:lr-tb;fill:#595959;fill-opacity:1;fill-rule:nonzero;stroke:none"
           id="text3786"><tspan
             x="0 10.1"
             y="0"
             sodipodi:role="line"
             id="tspan3788">30</tspan></text>
</g></g><g
       id="g3790"><g
         id="g3792"
         clip-path="url(#clipPath3794)"><text
           transform="matrix(1,0,0,-1,186.85,148.18)"
           style="font-variant:normal;font-weight:normal;font-size:18.92499924px;font-family:'Segoe UI';-inkscape-font-specification:'Segoe UI';writing-mode:lr-tb;fill:#595959;fill-opacity:1;fill-rule:nonzero;stroke:none"
           id="text3798"><tspan
             x="0 10.087025 21.00675 27.308775 36.941601 41.597149 46.650124 57.550926 68.887001 79.806725"
             y="0"
             sodipodi:role="line"
             id="tspan3800">Total Body</tspan></text>
</g></g><g
       id="g3802"><g
         id="g3804"
         clip-path="url(#clipPath3806)"><text
           transform="matrix(1,0,0,-1,201.18,123)"
           style="font-variant:normal;font-weight:normal;font-size:18.92499924px;font-family:'Segoe UI';-inkscape-font-specification:'Segoe UI';writing-mode:lr-tb;fill:#595959;fill-opacity:1;fill-rule:nonzero;stroke:none"
           id="text3810"><tspan
             x="0 17.675949 27.7062 31.907551 43.243626 53.747002"
             y="0"
             sodipodi:role="line"
             id="tspan3812">Weight</tspan></text>
</g></g><g
       id="g3814"><g
         id="g3816"
         clip-path="url(#clipPath3818)"><text
           transform="matrix(1,0,0,-1,313.15,148.18)"
           style="font-variant:normal;font-weight:normal;font-size:18.92499924px;font-family:'Segoe UI';-inkscape-font-specification:'Segoe UI';writing-mode:lr-tb;fill:#595959;fill-opacity:1;fill-rule:nonzero;stroke:none"
           id="text3822"><tspan
             x="0 10.93865 21.896225 33.2323 42.089199 47.5396 64.363922 73.99675 82.02095 90.045151 95.495552 100.5296 111.07082 122.4069 132.07758"
             y="0"
             sodipodi:role="line"
             id="tspan3824">Body Mass Index</tspan></text>
</g></g><g
       id="g3826"><g
         id="g3828"
         clip-path="url(#clipPath3830)"><text
           transform="matrix(1,0,0,-1,497.65,148.18)"
           style="font-variant:normal;font-weight:normal;font-size:18.92499924px;font-family:'Segoe UI';-inkscape-font-specification:'Segoe UI';writing-mode:lr-tb;fill:#595959;fill-opacity:1;fill-rule:nonzero;stroke:none"
           id="text3834"><tspan
             x="0 17.675949 27.308775 31.888624 39.912827 46.195927 50.775776 55.431324 65.9347"
             y="0"
             sodipodi:role="line"
             id="tspan3836">Waistline</tspan></text>
</g></g><g
       id="g3838"><g
         id="g3840"
         clip-path="url(#clipPath3842)"><text
           transform="matrix(1,0,0,-1,617.15,148.18)"
           style="font-variant:normal;font-weight:normal;font-size:18.92499924px;font-family:'Segoe UI';-inkscape-font-specification:'Segoe UI';writing-mode:lr-tb;fill:#595959;fill-opacity:1;fill-rule:nonzero;stroke:none"
           id="text3846"><tspan
             x="0 10.087025 21.0446 27.365549 36.998375 41.653927 46.706902 58.459324 69.397972 80.355553 84.935402 94.662849 103.06555 109.3865 119.05717 125.75662 136.7142"
             y="0"
             sodipodi:role="line"
             id="tspan3848">Total Cholesterol</tspan></text>
</g></g><g
       id="g3850"><g
         id="g3852"
         clip-path="url(#clipPath3854)"><text
           transform="matrix(-4.4e-8,1,1,4.4e-8,103.95,188.73)"
           style="font-variant:normal;font-weight:normal;font-size:21.02499962px;font-family:'Segoe UI';-inkscape-font-specification:'Segoe UI';writing-mode:lr-tb;fill:#595959;fill-opacity:1;fill-rule:nonzero;stroke:none"
           id="text3858"><tspan
             x="0 11.774 22.707001 29.855499 39.505974 50.438976 62.212975 69.340446 79.852951 92.026428 102.95943 109.6664 121.83987 128.54684 133.99232 146.56528 157.56136 169.69278 181.46678 191.11725 198.24472 203.33278 215.4642 227.2382 233.94518 240.29472 257.49316"
             y="0"
             sodipodi:role="line"
             id="tspan3860">Percentage of Reduction (%)</tspan></text>
</g></g><g
       id="g3862"><g
         id="g3864"
         clip-path="url(#clipPath3866)"><text
           transform="matrix(1,0,0,-1,226.15,492.6)"
           style="font-variant:normal;font-weight:normal;font-size:29.45000076px;font-family:'Segoe UI';-inkscape-font-specification:'Segoe UI';writing-mode:lr-tb;fill:#595959;fill-opacity:1;fill-rule:nonzero;stroke:none"
           id="text3870"><tspan
             x="0 20.2027 29.83285 45.353001 60.87315 77.630203 85.169403 97.774002 113.29415 128.40199 135.94119 150.19501 162.77016 169.07245 177.05341 190.92435 208.18205 229.56274 237.5437 255.62601 270.73386 277.86075 295.11844 305.19034 312.31726 327.86685 335.84781 356.49225 363.61914 379.10986"
             y="0"
             sodipodi:role="line"
             id="tspan3872">Green Tea vs. Low Calorie Diet</tspan></text>
</g></g><path
       d="m 224.7,80.527 11.321,0 0,11.321 -11.321,0 0,-11.321 z"
       style="fill:#99cc00;fill-opacity:1;fill-rule:evenodd;stroke:none"
       id="path3874"
       inkscape:connector-curvature="0" /><g
       id="g3876"><g
         id="g3878"
         clip-path="url(#clipPath3880)"><text
           transform="matrix(1,0,0,-1,240.95,79.55)"
           style="font-variant:normal;font-weight:normal;font-size:18.92499924px;font-family:'Segoe UI';-inkscape-font-specification:'Segoe UI';writing-mode:lr-tb;fill:#595959;fill-opacity:1;fill-rule:nonzero;stroke:none"
           id="text3884"><tspan
             x="0 12.98255 19.738775 29.409451 39.496475 49.999851 55.052826 65.139847 74.810524 84.443352 89.950523 102.93307 109.27295 120.60902 131.1124"
             y="0"
             sodipodi:role="line"
             id="tspan3886">Green Tea Group</tspan></text>
</g></g><path
       d="m 415.08,80.527 11.321,0 0,11.321 -11.321,0 0,-11.321 z"
       style="fill:#00b050;fill-opacity:1;fill-rule:evenodd;stroke:none"
       id="path3888"
       inkscape:connector-curvature="0" /><g
       id="g3890"><g
         id="g3892"
         clip-path="url(#clipPath3894)"><text
           transform="matrix(1,0,0,-1,431.38,79.55)"
           style="font-variant:normal;font-weight:normal;font-size:18.92499924px;font-family:'Segoe UI';-inkscape-font-specification:'Segoe UI';writing-mode:lr-tb;fill:#595959;fill-opacity:1;fill-rule:nonzero;stroke:none"
           id="text3898"><tspan
             x="0 8.8190498 20.155125 33.610802 38.663776 50.416199 60.049026 64.704575 75.624298 82.323753 86.903603 97.028473 102.08145 115.10185 119.6817 129.80658 136.1086 141.16158 154.14412 160.90034 171.82007 182.72087"
             y="0"
             sodipodi:role="line"
             id="tspan3900">Low Calorie Diet Group</tspan></text>
</g></g><g
       id="g3902"><g
         id="g3904"
         clip-path="url(#clipPath3906)"><path
           d="m 54.957,54.818 731.9,0 0,485.52 -731.9,0 0,-485.52 z"
           style="fill:none;stroke:#d9d9d9;stroke-width:1.57640004;stroke-linecap:butt;stroke-linejoin:round;stroke-miterlimit:10;stroke-dasharray:none;stroke-opacity:1"
           id="path3910"
           inkscape:connector-curvature="0" /></g></g></g></svg>