<?xml version="1.0" encoding="UTF-8" standalone="no"?>
<!-- Created with Inkscape (http://www.inkscape.org/) -->

<svg
   xmlns:dc="http://purl.org/dc/elements/1.1/"
   xmlns:cc="http://creativecommons.org/ns#"
   xmlns:rdf="http://www.w3.org/1999/02/22-rdf-syntax-ns#"
   xmlns:svg="http://www.w3.org/2000/svg"
   xmlns="http://www.w3.org/2000/svg"
   xmlns:sodipodi="http://sodipodi.sourceforge.net/DTD/sodipodi-0.dtd"
   xmlns:inkscape="http://www.inkscape.org/namespaces/inkscape"
   id="svg3336"
   version="1.1"
   inkscape:version="0.91 r13725"
   xml:space="preserve"
   width="193.84758mm"
   height="171.85541mm"
   viewBox="0 0 686.86151 608.93648"
   sodipodi:docname="L-carnitine.svg"><metadata
     id="metadata3342"><rdf:RDF><cc:Work
         rdf:about=""><dc:format>image/svg+xml</dc:format><dc:type
           rdf:resource="http://purl.org/dc/dcmitype/StillImage" /><dc:title></dc:title></cc:Work></rdf:RDF></metadata><defs
     id="defs3340"><clipPath
       clipPathUnits="userSpaceOnUse"
       id="clipPath3360"><path
         d="m 146.8,54.8 548,0 0,486 -548,0 0,-486 z"
         id="path3362"
         inkscape:connector-curvature="0"
         style="clip-rule:evenodd" /></clipPath><clipPath
       clipPathUnits="userSpaceOnUse"
       id="clipPath3372"><path
         d="m 146.8,54.8 548,0 0,486 -548,0 0,-486 z"
         id="path3374"
         inkscape:connector-curvature="0"
         style="clip-rule:evenodd" /></clipPath><clipPath
       clipPathUnits="userSpaceOnUse"
       id="clipPath3384"><path
         d="m 146.8,54.8 548,0 0,486 -548,0 0,-486 z"
         id="path3386"
         inkscape:connector-curvature="0"
         style="clip-rule:evenodd" /></clipPath><clipPath
       clipPathUnits="userSpaceOnUse"
       id="clipPath3396"><path
         d="m 146.8,54.8 548,0 0,486 -548,0 0,-486 z"
         id="path3398"
         inkscape:connector-curvature="0"
         style="clip-rule:evenodd" /></clipPath><clipPath
       clipPathUnits="userSpaceOnUse"
       id="clipPath3408"><path
         d="m 146.8,54.8 548,0 0,486 -548,0 0,-486 z"
         id="path3410"
         inkscape:connector-curvature="0"
         style="clip-rule:evenodd" /></clipPath><clipPath
       clipPathUnits="userSpaceOnUse"
       id="clipPath3420"><path
         d="m 146.8,54.8 548,0 0,486 -548,0 0,-486 z"
         id="path3422"
         inkscape:connector-curvature="0"
         style="clip-rule:evenodd" /></clipPath><clipPath
       clipPathUnits="userSpaceOnUse"
       id="clipPath3432"><path
         d="m 146.8,54.8 548,0 0,486 -548,0 0,-486 z"
         id="path3434"
         inkscape:connector-curvature="0"
         style="clip-rule:evenodd" /></clipPath><clipPath
       clipPathUnits="userSpaceOnUse"
       id="clipPath3444"><path
         d="m 146.8,54.8 548,0 0,486 -548,0 0,-486 z"
         id="path3446"
         inkscape:connector-curvature="0"
         style="clip-rule:evenodd" /></clipPath><clipPath
       clipPathUnits="userSpaceOnUse"
       id="clipPath3456"><path
         d="m 146.8,54.8 548,0 0,486 -548,0 0,-486 z"
         id="path3458"
         inkscape:connector-curvature="0"
         style="clip-rule:evenodd" /></clipPath><clipPath
       clipPathUnits="userSpaceOnUse"
       id="clipPath3468"><path
         d="m 146.8,54.8 548,0 0,486 -548,0 0,-486 z"
         id="path3470"
         inkscape:connector-curvature="0"
         style="clip-rule:evenodd" /></clipPath><clipPath
       clipPathUnits="userSpaceOnUse"
       id="clipPath3480"><path
         d="m 146.8,54.8 548,0 0,486 -548,0 0,-486 z"
         id="path3482"
         inkscape:connector-curvature="0"
         style="clip-rule:evenodd" /></clipPath><clipPath
       clipPathUnits="userSpaceOnUse"
       id="clipPath3492"><path
         d="m 146.8,54.8 548,0 0,486 -548,0 0,-486 z"
         id="path3494"
         inkscape:connector-curvature="0"
         style="clip-rule:evenodd" /></clipPath><clipPath
       clipPathUnits="userSpaceOnUse"
       id="clipPath3504"><path
         d="m 146.8,54.8 548,0 0,486 -548,0 0,-486 z"
         id="path3506"
         inkscape:connector-curvature="0"
         style="clip-rule:evenodd" /></clipPath><clipPath
       clipPathUnits="userSpaceOnUse"
       id="clipPath3516"><path
         d="m 146.8,54.8 548,0 0,486 -548,0 0,-486 z"
         id="path3518"
         inkscape:connector-curvature="0"
         style="clip-rule:evenodd" /></clipPath><clipPath
       clipPathUnits="userSpaceOnUse"
       id="clipPath3528"><path
         d="m 146.8,54.8 548,0 0,486 -548,0 0,-486 z"
         id="path3530"
         inkscape:connector-curvature="0"
         style="clip-rule:evenodd" /></clipPath><clipPath
       clipPathUnits="userSpaceOnUse"
       id="clipPath3540"><path
         d="m 146.8,54.8 548,0 0,486 -548,0 0,-486 z"
         id="path3542"
         inkscape:connector-curvature="0"
         style="clip-rule:evenodd" /></clipPath><clipPath
       clipPathUnits="userSpaceOnUse"
       id="clipPath3552"><path
         d="m 146.8,54.8 548,0 0,486 -548,0 0,-486 z"
         id="path3554"
         inkscape:connector-curvature="0"
         style="clip-rule:evenodd" /></clipPath><clipPath
       clipPathUnits="userSpaceOnUse"
       id="clipPath3566"><path
         d="m 146.8,54.8 548,0 0,486 -548,0 0,-486 z"
         id="path3568"
         inkscape:connector-curvature="0"
         style="clip-rule:evenodd" /></clipPath><clipPath
       clipPathUnits="userSpaceOnUse"
       id="clipPath3580"><path
         d="m 146.8,54.8 548,0 0,486 -548,0 0,-486 z"
         id="path3582"
         inkscape:connector-curvature="0"
         style="clip-rule:evenodd" /></clipPath></defs><sodipodi:namedview
     pagecolor="#ffffff"
     bordercolor="#666666"
     borderopacity="1"
     objecttolerance="10"
     gridtolerance="10"
     guidetolerance="10"
     inkscape:pageopacity="0"
     inkscape:pageshadow="2"
     inkscape:window-width="1920"
     inkscape:window-height="1017"
     id="namedview3338"
     showgrid="false"
     inkscape:zoom="1.1397849"
     inkscape:cx="523.08244"
     inkscape:cy="238.68011"
     inkscape:window-x="-8"
     inkscape:window-y="-8"
     inkscape:window-maximized="1"
     inkscape:current-layer="g3344"
     units="mm"
     fit-margin-top="0"
     fit-margin-left="0"
     fit-margin-right="0"
     fit-margin-bottom="0" /><g
     id="g3344"
     inkscape:groupmode="layer"
     inkscape:label="L-carnitine"
     transform="matrix(1.25,0,0,-1.25,-2.109934,742.25639)"><path
       d="m 2.4575472,107.42551 547.9500028,0 0,485.61 -547.9500028,0 0,-485.61 z"
       style="fill:#ffffff;fill-opacity:1;fill-rule:evenodd;stroke:none"
       id="path3346"
       inkscape:connector-curvature="0" /><path
       d="m 92.527547,245.74151 344.680003,0 m -344.680003,48.03 344.680003,0 m -344.680003,47.61 344.680003,0 m -344.680003,47.61 344.680003,0 m -344.680003,47.61 344.680003,0 m -344.680003,47.87 344.680003,0"
       style="fill:none;stroke:#d9d9d9;stroke-width:1.53919995;stroke-linecap:butt;stroke-linejoin:round;stroke-miterlimit:10;stroke-dasharray:none;stroke-opacity:1"
       id="path3348"
       inkscape:connector-curvature="0" /><path
       d="m 123.12755,341.38151 111.23,0 0,-143.26 -111.23,0 0,143.26 z m 172.39,-95.64 111.23,0 0,-47.62 -111.23,0 0,47.62 z"
       style="fill:#70ad47;fill-opacity:1;fill-rule:nonzero;stroke:none"
       id="path3350"
       inkscape:connector-curvature="0" /><path
       d="m 123.12755,436.60151 111.23,0 0,-95.22 -111.23,0 0,95.22 z m 172.39,-142.83 111.23,0 0,-48.03 -111.23,0 0,48.03 z"
       style="fill:#99cc00;fill-opacity:1;fill-rule:nonzero;stroke:none"
       id="path3352"
       inkscape:connector-curvature="0" /><path
       d="m 92.527547,198.12151 344.680003,0"
       style="fill:none;stroke:#d9d9d9;stroke-width:1.53919995;stroke-linecap:butt;stroke-linejoin:round;stroke-miterlimit:10;stroke-dasharray:none;stroke-opacity:1"
       id="path3354"
       inkscape:connector-curvature="0" /><g
       id="g3356"
       transform="translate(-144.39245,52.641509)"><g
         id="g3358"
         clip-path="url(#clipPath3360)"><text
           transform="matrix(1,0,0,-1,203.27,138.03)"
           style="font-variant:normal;font-weight:normal;font-size:21.75px;font-family:'Segoe UI';-inkscape-font-specification:'Segoe UI';writing-mode:lr-tb;fill:#595959;fill-opacity:1;fill-rule:nonzero;stroke:none"
           id="text3364"><tspan
             x="0"
             y="0"
             id="tspan3366">0</tspan></text>
</g></g><g
       id="g3368"
       transform="translate(-144.39245,52.641509)"><g
         id="g3370"
         clip-path="url(#clipPath3372)"><text
           transform="matrix(1,0,0,-1,203.27,185.78)"
           style="font-variant:normal;font-weight:normal;font-size:21.77499962px;font-family:'Segoe UI';-inkscape-font-specification:'Segoe UI';writing-mode:lr-tb;fill:#595959;fill-opacity:1;fill-rule:nonzero;stroke:none"
           id="text3376"><tspan
             x="0"
             y="0"
             id="tspan3378">1</tspan></text>
</g></g><g
       id="g3380"
       transform="translate(-144.39245,52.641509)"><g
         id="g3382"
         clip-path="url(#clipPath3384)"><text
           transform="matrix(1,0,0,-1,203.27,233.53)"
           style="font-variant:normal;font-weight:normal;font-size:21.77499962px;font-family:'Segoe UI';-inkscape-font-specification:'Segoe UI';writing-mode:lr-tb;fill:#595959;fill-opacity:1;fill-rule:nonzero;stroke:none"
           id="text3388"><tspan
             x="0"
             y="0"
             id="tspan3390">2</tspan></text>
</g></g><g
       id="g3392"
       transform="translate(-144.39245,52.641509)"><g
         id="g3394"
         clip-path="url(#clipPath3396)"><text
           transform="matrix(1,0,0,-1,203.27,281.25)"
           style="font-variant:normal;font-weight:normal;font-size:21.75px;font-family:'Segoe UI';-inkscape-font-specification:'Segoe UI';writing-mode:lr-tb;fill:#595959;fill-opacity:1;fill-rule:nonzero;stroke:none"
           id="text3400"><tspan
             x="0"
             y="0"
             id="tspan3402">3</tspan></text>
</g></g><g
       id="g3404"
       transform="translate(-144.39245,52.641509)"><g
         id="g3406"
         clip-path="url(#clipPath3408)"><text
           transform="matrix(1,0,0,-1,203.27,329)"
           style="font-variant:normal;font-weight:normal;font-size:21.75px;font-family:'Segoe UI';-inkscape-font-specification:'Segoe UI';writing-mode:lr-tb;fill:#595959;fill-opacity:1;fill-rule:nonzero;stroke:none"
           id="text3412"><tspan
             x="0"
             y="0"
             id="tspan3414">4</tspan></text>
</g></g><g
       id="g3416"
       transform="translate(-144.39245,52.641509)"><g
         id="g3418"
         clip-path="url(#clipPath3420)"><text
           transform="matrix(1,0,0,-1,203.27,376.75)"
           style="font-variant:normal;font-weight:normal;font-size:21.77499962px;font-family:'Segoe UI';-inkscape-font-specification:'Segoe UI';writing-mode:lr-tb;fill:#595959;fill-opacity:1;fill-rule:nonzero;stroke:none"
           id="text3424"><tspan
             x="0"
             y="0"
             id="tspan3426">5</tspan></text>
</g></g><g
       id="g3428"
       transform="translate(-144.39245,52.641509)"><g
         id="g3430"
         clip-path="url(#clipPath3432)"><text
           transform="matrix(1,0,0,-1,203.27,424.48)"
           style="font-variant:normal;font-weight:normal;font-size:21.75px;font-family:'Segoe UI';-inkscape-font-specification:'Segoe UI';writing-mode:lr-tb;fill:#595959;fill-opacity:1;fill-rule:nonzero;stroke:none"
           id="text3436"><tspan
             x="0"
             y="0"
             id="tspan3438">6</tspan></text>
</g></g><g
       id="g3440"
       transform="translate(-144.39245,52.641509)"><g
         id="g3442"
         clip-path="url(#clipPath3444)"><text
           transform="matrix(1,0,0,-1,241.1,115.85)"
           style="font-variant:normal;font-weight:normal;font-size:16.42499924px;font-family:'Segoe UI';-inkscape-font-specification:'Segoe UI';writing-mode:lr-tb;fill:#595959;fill-opacity:1;fill-rule:nonzero;stroke:none"
           id="text3448"><tspan
             x="0 9.0009003 17.624025 26.624926 35.248051 39.748501 54.136799 63.581177 68.081627 77.936623 82.864128 87.364578 95.166451 101.73645 109.14413 117.75082 123.46673 132.53333 136.62315 142.35547 146.0511 155.47905"
             y="0"
             sodipodi:role="line"
             id="tspan3450">1000 mg of L-carnitine</tspan></text>
</g></g><g
       id="g3452"
       transform="translate(-144.39245,52.641509)"><g
         id="g3454"
         clip-path="url(#clipPath3456)"><text
           transform="matrix(1,0,0,-1,295.95,94)"
           style="font-variant:normal;font-weight:normal;font-size:16.42499924px;font-family:'Segoe UI';-inkscape-font-specification:'Segoe UI';writing-mode:lr-tb;fill:#595959;fill-opacity:1;fill-rule:nonzero;stroke:none"
           id="text3460"><tspan
             x="0 9.8385754 18.067499 23.7834 28.333124 38.1717 46.400623"
             y="0"
             sodipodi:role="line"
             id="tspan3462">per day</tspan></text>
</g></g><g
       id="g3464"
       transform="translate(-144.39245,52.641509)"><g
         id="g3466"
         clip-path="url(#clipPath3468)"><text
           transform="matrix(1,0,0,-1,417.42,115.85)"
           style="font-variant:normal;font-weight:normal;font-size:16.42499924px;font-family:'Segoe UI';-inkscape-font-specification:'Segoe UI';writing-mode:lr-tb;fill:#595959;fill-opacity:1;fill-rule:nonzero;stroke:none"
           id="text3472"><tspan
             x="0 9.0009003 17.624025 26.624926 35.248051 39.748501 54.136799 63.581177 68.081627 77.936623 82.864128 87.364578 97.219574 102.57413 112.00208 120.59235 126.35753 130.85797 134.58646 144.42502"
             y="0"
             sodipodi:role="line"
             id="tspan3474">1000 mg of other low</tspan></text>
</g></g><g
       id="g3476"
       transform="translate(-144.39245,52.641509)"><g
         id="g3478"
         clip-path="url(#clipPath3480)"><text
           transform="matrix(1,0,0,-1,417.03,94)"
           style="font-variant:normal;font-weight:normal;font-size:16.42499924px;font-family:'Segoe UI';-inkscape-font-specification:'Segoe UI';writing-mode:lr-tb;fill:#595959;fill-opacity:1;fill-rule:nonzero;stroke:none"
           id="text3484"><tspan
             x="0 7.4076748 16.014376 20.120625 29.565001 35.280899 39.419998 48.010277 52.165798 62.020802 66.127052 74.717323 80.104729 84.605171 94.493027 100.20892 109.68615 119.1141 128.55847 133.05893 142.94678 151.53705"
             y="0"
             sodipodi:role="line"
             id="tspan3486">calorie diet group per</tspan></text>
</g></g><g
       id="g3488"
       transform="translate(-144.39245,52.641509)"><g
         id="g3490"
         clip-path="url(#clipPath3492)"><text
           transform="matrix(1,0,0,-1,482.58,72.15)"
           style="font-variant:normal;font-weight:normal;font-size:16.42499924px;font-family:'Segoe UI';-inkscape-font-specification:'Segoe UI';writing-mode:lr-tb;fill:#595959;fill-opacity:1;fill-rule:nonzero;stroke:none"
           id="text3496"><tspan
             x="0 9.8385754 18.034651"
             y="0"
             sodipodi:role="line"
             id="tspan3498">day</tspan></text>
</g></g><g
       id="g3500"
       transform="translate(-144.39245,52.641509)"><g
         id="g3502"
         clip-path="url(#clipPath3504)"><text
           transform="matrix(-4.4e-8,1,1,4.4e-8,190.6,174.63)"
           style="font-variant:normal;font-weight:normal;font-size:18.47500038px;font-family:'Segoe UI';-inkscape-font-specification:'Segoe UI';writing-mode:lr-tb;fill:#595959;fill-opacity:1;fill-rule:nonzero;stroke:none"
           id="text3508"><tspan
             x="0 17.25565 27.0474 31.518351 42.603352 52.856976 59.009151 63.941975 72.532852 83.211403 91.0448 98.804298 104.10663 114.36025 124.18895 130.7291 135.66193 152.91757 162.70932 172.53802 181.55382 186.48665 192.19542 196.66638 207.3634 215.19679 222.51289 236.03661 245.8653 255.694 264.70981"
             y="0"
             sodipodi:role="line"
             id="tspan3510">Weight Loss Per Week (lbs/week)</tspan></text>
</g></g><g
       id="g3512"
       transform="translate(-144.39245,52.641509)"><g
         id="g3514"
         clip-path="url(#clipPath3516)"><text
           transform="matrix(1,0,0,-1,236.6,498.3)"
           style="font-variant:normal;font-weight:normal;font-size:24.64999962px;font-family:'Segoe UI';-inkscape-font-specification:'Segoe UI';writing-mode:lr-tb;fill:#595959;fill-opacity:1;fill-rule:nonzero;stroke:none"
           id="text3520"><tspan
             x="0 22.579399 35.298801 41.411999 55.758301 69.710197 77.918648 84.869949 96.3815 110.7278 120.9822 131.2366 138.1879 152.1398 159.90456 166.85585 175.0643 187.75905 199.66499 212.3844 218.9413"
             y="0"
             sodipodi:role="line"
             id="tspan3522">Weight Loss of take L</tspan></text>
</g></g><g
       id="g3524"
       transform="translate(-144.39245,52.641509)"><g
         id="g3526"
         clip-path="url(#clipPath3528)"><text
           transform="matrix(1,0,0,-1,467.32,498.3)"
           style="font-variant:normal;font-weight:normal;font-size:24.64999962px;font-family:'Segoe UI';-inkscape-font-specification:'Segoe UI';writing-mode:lr-tb;fill:#595959;fill-opacity:1;fill-rule:nonzero;stroke:none"
           id="text3532"><tspan
             x="0"
             y="0"
             id="tspan3534">-</tspan></text>
</g></g><g
       id="g3536"
       transform="translate(-144.39245,52.641509)"><g
         id="g3538"
         clip-path="url(#clipPath3540)"><text
           transform="matrix(1,0,0,-1,477.17,498.3)"
           style="font-variant:normal;font-weight:normal;font-size:24.64999962px;font-family:'Segoe UI';-inkscape-font-specification:'Segoe UI';writing-mode:lr-tb;fill:#595959;fill-opacity:1;fill-rule:nonzero;stroke:none"
           id="text3544"><tspan
             x="0 11.4869 24.18165 32.75985 46.71175 52.874249 61.082699 67.1959 81.147797 93.867203 100.00505 114.7704 127.85955"
             y="0"
             sodipodi:role="line"
             id="tspan3546">carnitine VS </tspan></text>
</g></g><g
       id="g3548"
       transform="translate(-144.39245,52.641509)"><g
         id="g3550"
         clip-path="url(#clipPath3552)"><text
           transform="matrix(1,0,0,-1,264.92,465.45)"
           style="font-variant:normal;font-weight:normal;font-size:24.64999962px;font-family:'Segoe UI';-inkscape-font-specification:'Segoe UI';writing-mode:lr-tb;fill:#595959;fill-opacity:1;fill-rule:nonzero;stroke:none"
           id="text3556"><tspan
             x="0 18.462851 26.671301 40.623199 53.342602 61.920799 68.921402 80.432953 94.877853 112.4533 119.4046 130.89149 143.58624 149.69945 164.14435 172.72255 178.83575 191.55515 197.69299 212.06395 218.17715 230.89655 239.105 246.0563 260.42725 268.63571 283.0806 297.0325"
             y="0"
             sodipodi:role="line"
             id="tspan3558">Other Low calorie diet group</tspan></text>
</g></g><path
       d="m 470.84755,322.14151 12.897,0 0,12.897 -12.897,0 0,-12.897 z"
       style="fill:#99cc00;fill-opacity:1;fill-rule:evenodd;stroke:none"
       id="path3560"
       inkscape:connector-curvature="0" /><g
       id="g3562"
       transform="translate(-144.39245,52.641509)"><g
         id="g3564"
         clip-path="url(#clipPath3566)"><text
           transform="matrix(1,0,0,-1,633.97,268.55)"
           style="font-variant:normal;font-weight:normal;font-size:21.77499962px;font-family:'Segoe UI';-inkscape-font-specification:'Segoe UI';writing-mode:lr-tb;fill:#595959;fill-opacity:1;fill-rule:nonzero;stroke:none"
           id="text3570"><tspan
             x="0 19.29265 30.376125"
             y="0"
             sodipodi:role="line"
             id="tspan3572">Max</tspan></text>
</g></g><path
       d="m 470.84755,281.45151 12.897,0 0,12.897 -12.897,0 0,-12.897 z"
       style="fill:#70ad47;fill-opacity:1;fill-rule:evenodd;stroke:none"
       id="path3574"
       inkscape:connector-curvature="0" /><g
       id="g3576"
       transform="translate(-144.39245,52.641509)"><g
         id="g3578"
         clip-path="url(#clipPath3580)"><text
           transform="matrix(1,0,0,-1,633.97,227.85)"
           style="font-variant:normal;font-weight:normal;font-size:21.77499962px;font-family:'Segoe UI';-inkscape-font-specification:'Segoe UI';writing-mode:lr-tb;fill:#595959;fill-opacity:1;fill-rule:nonzero;stroke:none"
           id="text3584"><tspan
             x="0 19.29265 24.562201"
             y="0"
             sodipodi:role="line"
             id="tspan3586">Min</tspan></text>
</g></g><path
       d="m 2.4575472,107.42551 547.9500028,0 0,485.61 -547.9500028,0 0,-485.61 z"
       style="fill:none;stroke:#d9d9d9;stroke-width:1.53919995;stroke-linecap:butt;stroke-linejoin:round;stroke-miterlimit:10;stroke-dasharray:none;stroke-opacity:1"
       id="path3588"
       inkscape:connector-curvature="0" /></g></svg>